<?xml version="1.0" encoding="utf-8"?>
<!-- Generator: Adobe Illustrator 18.1.1, SVG Export Plug-In . SVG Version: 6.00 Build 0)  -->
<svg version="1.1" id="Layer_1" xmlns="http://www.w3.org/2000/svg" xmlns:xlink="http://www.w3.org/1999/xlink" x="0px" y="0px"
	 width="283.5px" height="141.7px" viewBox="0 0 283.5 141.7" enable-background="new 0 0 283.5 141.7" xml:space="preserve">
<path d="M65.2,134.6c-2.5-0.4-2.9-1-2.9-2.2c0-1.1,0.9-2,2.5-2c1.7,0,2.5,0.6,2.8,2.2h1.3c-0.2-2.2-1.7-3.3-4.1-3.3
	c-2.3,0-3.9,1.4-3.9,3.3c0,2.1,1.5,2.9,4,3.3c2.3,0.4,2.9,0.9,2.9,2.3c0,1.4-1.2,2.3-2.8,2.3c-2.4,0-3-1.2-3.2-2.7h-1.4
	c0.2,2.1,1.4,3.8,4.6,3.8c2.4,0,4.2-1.5,4.2-3.6C69.3,135.9,67.8,135.1,65.2,134.6z M97.6,129.5h-1.5v12.1h7v-1.2h-5.5V129.5z
	 M55.6,109.5l5.4-5.9h-1.6l-5.3,5.8v-5.8h-1.5v12.1H54v-5.9l5.4,5.9h1.8L55.6,109.5z M79.9,136.8c0,3-1.1,3.7-3.1,3.7
	c-2,0-2.9-1-2.9-3.5v-7.5h-1.5v7.7c0,2.9,1.6,4.6,4.3,4.6c3.1,0,4.6-1.8,4.6-4.8v-7.5h-1.5V136.8z M81.3,109.7v-0.1
	c0-3.4-2.4-6.1-5.9-6.1c-3.5,0-6,2.7-6,6.1v0.1c0,3.4,2.4,6.1,6,6.1C78.9,115.9,81.3,113.1,81.3,109.7z M70.9,109.7v-0.1
	c0-2.9,1.6-4.9,4.4-4.9c2.8,0,4.4,2.2,4.4,4.9v0.1c0,2.9-1.7,5-4.3,5C72.9,114.7,70.9,112.7,70.9,109.7z M87.1,136h4.5v-1.2h-4.5
	v-4.1h5.6v-1.2h-7v12.1h7.3v-1.2h-5.9V136z M92.7,107.1L92.7,107.1c0-2.5-1.9-3.4-4.2-3.4h-3.6v12.1h1.5v-5.2h1.9l3.6,5.2h1.6
	l-3.7-5.4C91.4,110,92.7,109.1,92.7,107.1z M86.4,109.3v-4.5h2.3c1.6,0,2.6,0.5,2.6,2.2v0.1c0,1.5-0.9,2.2-2.6,2.2H86.4z M169,110.1
	c2.3,0.4,2.9,1,2.9,2.3c0,1.4-1.2,2.3-2.8,2.3c-2.4,0-3-1.2-3.2-2.7h-1.4c0.2,2.1,1.4,3.8,4.6,3.8c2.4,0,4.2-1.5,4.2-3.6
	c0-2.3-1.4-3.1-4.1-3.5c-2.5-0.4-2.9-1-2.9-2.2c0-1.1,0.9-2,2.5-2c1.7,0,2.6,0.6,2.8,2.1h1.3c-0.2-2.1-1.7-3.3-4.2-3.3
	c-2.3,0-3.9,1.4-3.9,3.3C164.9,108.9,166.4,109.7,169,110.1z M40.9,81.2c12.3,0,21.1-2.5,30-7c1.1-0.4,1.8-0.9,1.8-1.8
	c0-0.9-0.5-2-0.5-3.5V54.3c0-3.4,1.4-4.2,3.4-4.2H80c0.7,0,0.8-0.4,0.8-0.9v-2.6c0-0.4-0.1-0.8-0.9-0.8c-1.5,0-5.1,0.3-13,0.3
	c-7.5,0-12.4-0.3-14-0.3c-0.5,0-0.7,0.2-0.7,0.9v2.7c0,0.4,0.2,0.7,0.8,0.7h4.6c3.3,0,4.5,1.1,4.5,5.1v8.1c0,5.7-0.5,8.1-3,9.7
	c-3.8,2.2-9.2,3.7-18,3.7c-7.2,0-13.9-2.5-19.4-7.8C15,62.5,11.3,51.1,11.3,38.2c0-9.9,3.7-19,9.7-25.3C27.6,5.8,34.4,4,42,4
	c9.9,0,16.7,4.9,20,9c3.8,4.7,5.7,9.9,6.6,13c0.1,0.5,0.4,0.9,0.9,0.9l2-0.2c0.4,0,0.5-0.4,0.5-1l-0.3-21c0-0.8-0.2-1.3-1-1.3
	c-0.7,0-1.1,0.6-1.5,1l-1.6,2c-0.7,0.9-1.3,1.1-2.5,0.1C61.3,3.5,52.8,0,43.3,0C30.1,0,20.2,3.7,12.4,10.4C4.3,17.7,0,28.4,0,38.4
	C0,51.7,3.4,61,10.1,68.6C17.7,77.5,31.1,81.2,40.9,81.2z M1,141.6h1.5v-5.4h4.4V135H2.4v-4.3H8v-1.2H1V141.6z M8.7,113.6l-5.9-10H1
	v12.1h1.4v-10.4l6.1,10.4h1.7v-12.1H8.7V113.6z M168.7,79.8c0.9,0,5.2-0.3,12.5-0.3c7.1,0,10.4,0.3,11.1,0.3c0.4,0,0.7-0.4,0.7-1.1
	v-2c0-0.7-0.2-0.9-1.1-0.9h-5c-1.8,0-2-1.3-2-2.9c-0.2-1.2-0.2-11.3-0.2-24.3v-9.8h13.4c7.8,0,9.2,1.8,9.2,8.3v26.2
	c-0.1,2-0.7,2.5-1.8,2.5h-4.4c-0.8,0-1.1,0.2-1.1,0.9V79c0,0.7,0.3,0.9,0.9,0.9c1.1,0,4.3-0.3,10.8-0.3c6.9,0,9.7,0.3,10.5,0.3
	c0.7,0,0.9-0.3,0.9-1v-2c0-0.7-0.2-1-1-1h-4.7c-1.6,0-2.1-0.9-2.1-2.9c-0.1-1.2-0.1-5.2-0.1-9.5v-12c0-9.9,0-16.8,0.3-18.7
	c0.1-0.8,0.1-1.3-0.7-1.3c-0.7,0-1.2,0.2-2.2,0.4c-3.8,0.9-7.9,1.6-12.1,1.6h-15.9v-2.2c0-7.5,0.2-16.5,5.4-22.1
	c2.3-2.6,5.4-3.9,8.4-3.9c2.6,0,4.2,1.3,5.6,3.3c2.3,3,4.2,4.3,6.7,4.3c2.4,0,5.3-1.8,5.2-5.4c0-4-5-7.7-11-7.7
	c-5.5,0-14,2.5-19.9,9.1c-4.7,5.2-8.2,11.8-8.2,22.7v1.9h-6.4c-0.9,0-1.2,0.1-1.3,0.8l-0.4,3.4c-0.1,0.7,0.2,1.1,0.8,1.1h7.4V72
	c-0.1,2.7-0.6,3.8-2.2,3.8H169c-0.9,0-1.1,0.2-1.1,0.8v2.4C167.9,79.6,168.1,79.8,168.7,79.8z M16.2,129.3c-3.5,0-6,2.7-6,6.1v0.1
	c0,3.4,2.4,6.1,6,6.1c3.5,0,5.9-2.7,5.9-6.2v-0.1C22.1,132,19.7,129.3,16.2,129.3z M20.6,135.6c0,2.9-1.7,5-4.3,5
	c-2.5,0-4.5-2-4.5-4.9v-0.1c0-2.9,1.6-4.9,4.4-4.9c2.8,0,4.4,2.2,4.4,4.9V135.6z M55.5,141.6h1.5v-12.1h-1.5V141.6z M106.9,109.6h-5
	v1.2h3.5c0,2.1-1.2,3.9-3.8,3.9c-2.8,0-4.3-2-4.3-4.9v-0.1c0-3,1.6-5,4.4-5c1.8,0,3.1,0.7,3.4,2.7h1.5c-0.4-2.7-2.5-3.8-4.9-3.8
	c-3.5,0-5.8,2.6-5.8,6.2v0.1c0,3.5,2.1,6.1,5.8,6.1c3.1,0,5.2-1.9,5.2-5.4V109.6z M48.9,112.3c0-2.3-1.4-3.1-4.1-3.5
	c-2.5-0.4-2.9-1-2.9-2.2c0-1.1,0.9-2,2.5-2c1.7,0,2.6,0.6,2.8,2.1h1.3c-0.3-2.1-1.7-3.3-4.2-3.3c-2.3,0-3.9,1.4-3.9,3.3
	c0,2.2,1.5,2.9,4.1,3.3c2.3,0.4,2.9,1,2.9,2.3c0,1.4-1.2,2.3-2.8,2.3c-2.4,0-3-1.2-3.2-2.7h-1.4c0.2,2.1,1.4,3.8,4.6,3.8
	C47.1,115.9,48.9,114.3,48.9,112.3z M47.4,140.2l-3.6-10.7h-1.5l4.1,12.1h1.8l4.2-12.1H51L47.4,140.2z M19.7,103.5
	c-3.6,0-5.9,2.7-5.9,6.1v0.1c0,3.4,2.4,6.1,6,6.1c3.5,0,5.9-2.7,5.9-6.2v-0.1C25.6,106.2,23.3,103.5,19.7,103.5z M24.1,109.7
	c0,2.9-1.7,5-4.3,5c-2.5,0-4.5-2-4.5-4.9v-0.1c0-2.9,1.6-4.9,4.4-4.9c2.8,0,4.4,2.2,4.4,4.9V109.7z M33.6,132.9L33.6,132.9
	c0-2.5-1.9-3.4-4.2-3.4h-3.6v12.1h1.5v-5.3H29l3.6,5.3h1.6l-3.7-5.4C32.2,135.9,33.6,134.9,33.6,132.9z M27.2,135.2v-4.5h2.3
	c1.6,0,2.7,0.5,2.7,2.2v0.1c0,1.5-0.9,2.2-2.7,2.2H27.2z M37.1,107.1L37.1,107.1c0-2.5-1.9-3.4-4.2-3.4h-3.6v12.1h1.5v-5.2h1.9
	l3.6,5.2h1.6l-3.7-5.4C35.8,110,37.1,109.1,37.1,107.1z M30.7,109.3v-4.5H33c1.6,0,2.7,0.5,2.7,2.2v0.1c0,1.5-0.9,2.2-2.7,2.2H30.7z
	 M113.2,103.6l-4.2,12.1h1.4l1.2-3.5h5l1.2,3.5h1.5l-4.1-12.1H113.2z M112.1,111.1l2.1-6.2l2.1,6.2H112.1z M239.4,134.6
	c-2.5-0.4-2.9-1-2.9-2.2c0-1.1,0.9-2,2.5-2c1.7,0,2.6,0.6,2.8,2.2h1.3c-0.2-2.2-1.7-3.3-4.1-3.3c-2.3,0-3.9,1.4-3.9,3.3
	c0,2.1,1.5,2.9,4,3.3c2.3,0.4,2.9,0.9,2.9,2.3c0,1.4-1.2,2.3-2.7,2.3c-2.4,0-3-1.2-3.2-2.7h-1.4c0.2,2.1,1.4,3.8,4.6,3.8
	c2.4,0,4.2-1.5,4.2-3.6C243.5,135.9,242,135.1,239.4,134.6z M207.8,113.6l-5.9-10H200v12.1h1.4v-10.4l6.1,10.4h1.7v-12.1h-1.4V113.6
	z M226.4,129.5l-4.2,12.1h1.4l1.2-3.5h5l1.2,3.5h1.5l-4.1-12.1H226.4z M225.2,136.9l2.1-6.2l2.1,6.2H225.2z M219.6,129.5H218
	l-5.2,5.8v-5.8h-1.5v12.1h1.5v-5.9l5.4,5.9h1.8l-5.6-6.2L219.6,129.5z M199.8,139.5l-5.9-10H192v12.1h1.4v-10.4l6.1,10.4h1.7v-12.1
	h-1.4V139.5z M205.5,141.6h1.5v-12.1h-1.5V141.6z M282.3,75.9h-5c-2.3,0-2.7-1.5-2.8-3.4c-0.1-3.4-0.1-20-0.1-25.7v-9.8
	c0-6,0.3-28.9,0.4-35c0.1-1.4-0.1-2-0.9-2c-0.7,0-1.3,0.2-2.3,0.9c-4.1,2.6-9,4.6-12.9,6.4c-0.7,0.2-1,0.4-1,0.8v0.9
	c0,0.2,0.1,0.3,0.6,0.5l2.2,0.8c3.5,1.1,5.3,2.8,5.5,6.6c0.2,2.9,0.3,12.9,0.3,20.7v6.9c0,6.4,0,25.3-0.1,28.7
	c-0.1,2-1.2,2.8-2.4,2.8h-5.3c-1.2,0-1.4,0.2-1.4,1v1.9c0,0.7,0.2,1.1,0.8,1.1c1,0,5.4-0.3,12.4-0.3c6.8,0,11.7,0.3,12.4,0.3
	c0.4,0,0.7-0.4,0.7-1.1v-1.9C283.5,76.2,283.3,75.9,282.3,75.9z M196.3,109.7v-0.1c0-3.4-2.3-6.1-5.9-6.1c-3.6,0-6,2.7-6,6.1v0.1
	c0,3.4,2.4,6.1,6,6.1C194,115.9,196.3,113.1,196.3,109.7z M190.5,114.7c-2.5,0-4.5-2-4.5-4.9v-0.1c0-2.9,1.6-4.9,4.4-4.9
	c2.8,0,4.4,2.2,4.4,4.9v0.1C194.8,112.6,193.2,114.7,190.5,114.7z M277.9,139.5l-5.9-10h-1.9v12.1h1.4v-10.4l6.1,10.4h1.7v-12.1
	h-1.4V139.5z M249.7,138.2c0,1.6-0.8,2.3-2,2.3c-0.7,0-1.2-0.2-1.6-0.3v1.2c0.3,0.2,0.8,0.3,1.7,0.3c1.8,0,3.3-1,3.3-3.4v-8.8h-1.5
	V138.2z M260.6,129.3c-3.5,0-5.9,2.7-5.9,6.1v0.1c0,3.4,2.4,6.1,6,6.1c3.5,0,5.9-2.7,5.9-6.2v-0.1
	C266.5,132,264.1,129.3,260.6,129.3z M265,135.6c0,2.9-1.7,5-4.4,5c-2.5,0-4.5-2-4.5-4.9v-0.1c0-2.9,1.6-4.9,4.4-4.9
	c2.8,0,4.4,2.2,4.4,4.9V135.6z M252.9,75.9h-5c-2.3,0-2.8-1.5-2.8-3.4c-0.1-3.4-0.1-20-0.1-25.7v-9.8c0-6,0.3-28.9,0.4-35
	c0.1-1.4-0.1-2-0.9-2c-0.7,0-1.3,0.2-2.3,0.9c-4.1,2.6-9,4.6-12.9,6.4c-0.7,0.2-1,0.4-1,0.8v0.9c0,0.2,0.1,0.3,0.7,0.5l2.2,0.8
	c3.5,1.1,5.3,2.8,5.5,6.6c0.2,2.9,0.3,12.9,0.3,20.7v6.9c0,6.4,0,25.3-0.1,28.7c-0.1,2-1.2,2.8-2.4,2.8h-5.3c-1.2,0-1.4,0.2-1.4,1
	v1.9c0,0.7,0.2,1.1,0.8,1.1c1,0,5.4-0.3,12.4-0.3c6.8,0,11.7,0.3,12.4,0.3c0.4,0,0.7-0.4,0.7-1.1v-1.9
	C254.1,76.2,253.8,75.9,252.9,75.9z M135.9,103.6v12.1h1.5v-12.1H135.9z M149.7,112.3c0-2.3-1.4-3.1-4.1-3.5c-2.5-0.4-2.9-1-2.9-2.2
	c0-1.1,0.9-2,2.5-2c1.7,0,2.5,0.6,2.8,2.1h1.3c-0.2-2.1-1.7-3.3-4.2-3.3c-2.3,0-3.9,1.4-3.9,3.3c0,2.2,1.5,2.9,4,3.3
	c2.3,0.4,2.9,1,2.9,2.3c0,1.4-1.2,2.3-2.8,2.3c-2.4,0-3-1.2-3.2-2.7h-1.4c0.2,2.1,1.4,3.8,4.6,3.8
	C147.9,115.9,149.7,114.3,149.7,112.3z M138.2,129.3c-3.6,0-6,2.7-6,6.1v0.1c0,3.4,2.4,6.1,6,6.1c3.5,0,5.9-2.7,5.9-6.2v-0.1
	C144.1,132,141.8,129.3,138.2,129.3z M142.6,135.6c0,2.9-1.7,5-4.4,5c-2.5,0-4.5-2-4.5-4.9v-0.1c0-2.9,1.6-4.9,4.4-4.9
	c2.8,0,4.4,2.2,4.4,4.9V135.6z M186.4,136.8c0,3-1.1,3.7-3.1,3.7c-2,0-2.9-1-2.9-3.5v-7.5h-1.5v7.7c0,2.9,1.6,4.6,4.3,4.6
	c3.1,0,4.6-1.8,4.6-4.8v-7.5h-1.5V136.8z M130.2,113.6l-5.9-10h-1.9v12.1h1.4v-10.4l6.1,10.4h1.7v-12.1h-1.4V113.6z M113.7,31.7
	c-4.7,0-9.9,4.5-13.2,9.6h-0.4l-0.5-7.6c0-0.7-0.1-1.3-0.8-1.3c-0.4,0-0.9,0.1-1.5,0.4l-10.9,5.6c-0.7,0.3-0.9,0.5-0.9,1V40
	c0,0.4,0.2,0.5,0.9,0.8l2.1,1.1c3.1,1.7,4,2.8,4,8.4v10.3c0,5.7,0,9.6-0.1,13.2c0,1.4-0.8,2.1-2.4,2.1h-4.3c-1,0-1.2,0.2-1.2,1v1.9
	c0,0.9,0.2,1.1,0.7,1.1c0.7,0,5.3-0.3,12.1-0.3c5.9,0,11,0.3,11.6,0.3c0.5,0,0.6-0.3,0.6-1v-2c0-0.7-0.1-1-0.8-1h-5.2
	c-2.3,0-3.1-1.1-3.1-4.5V48.3c0-0.3,0.4-2.3,1.1-3.5c1.9-3.5,4.7-4.6,6.5-4.6c1.4,0,2.7,0.3,3.6,0.9c0.9,0.4,2,0.9,3.2,0.9
	c2,0,4.6-2.2,4.6-5.4C119.3,34,117.5,31.7,113.7,31.7z M130.6,129.5H129l-5.3,5.8v-5.8h-1.5v12.1h1.5v-5.9l5.4,5.9h1.8l-5.6-6.2
	L130.6,129.5z M107.6,129.5h-1.5v12.1h7v-1.2h-5.5V129.5z M181,112.4v-8.8h-1.5v8.7c0,1.6-0.8,2.3-2,2.3c-0.7,0-1.2-0.1-1.6-0.3v1.2
	c0.3,0.2,0.8,0.3,1.7,0.3C179.5,115.9,181,114.9,181,112.4z M169.1,138.9l-3.7-9.4h-2v12.1h1.4v-10.2l4.1,10.2h0.5l4-10.2v10.2h1.5
	v-12.1h-2L169.1,138.9z M153.4,138.9l-3.7-9.4h-2v12.1h1.4v-10.2l4.1,10.2h0.5l4-10.2v10.2h1.5v-12.1h-2L153.4,138.9z M156.2,103.6
	l-4.1,12.1h1.4l1.2-3.5h5l1.2,3.5h1.5l-4.1-12.1H156.2z M155,111.1l2.1-6.2l2.1,6.2H155z M164.9,73.5l-1.1-0.9
	c-0.5-0.3-0.7-0.1-1.1,0.4c-0.5,0.8-2.1,1.7-3.9,1.7c-2,0-3.3-2-3.3-8.2V43.1c0-3-0.1-5.5-2.4-7.8c-1.5-1.4-3.6-3-8.8-3
	c-4.9,0-8.8,1.1-13.4,3.8c-4.5,2.6-7.6,6.8-7.6,10.3c0,2.5,0.9,3.5,2.6,3.5c4.5,0,5.8-2.4,5.8-6.3c0-2-1-3.6,0.6-5.1
	c1.5-1.4,4.9-2.3,7.1-2.3c3.2,0,5.4,1,6.6,2.4c1.2,1.4,1.3,4.3,1.5,6.2v7c-1.8,1.5-7.5,4.2-12.4,6.4c-8.7,3.9-11,8.2-11,13.3
	c0,6.9,4,9.1,6.6,9.1c2.4,0,4.4,0,6.5-0.7c4.9-1.7,8.6-4,10.9-6.7h0.2c1,4.5,3.9,7.4,7.8,7.4c5.6,0,7.7-3.8,8.6-5.4
	C165.5,74.3,165.2,73.8,164.9,73.5z M147.5,68.8c0,3-5.8,6.8-9,6.8c-3.3,0-5.7-2-5.7-6.1c0-9.1,10.8-11.3,14.7-14.3V68.8z"/>
</svg>
