<?xml version="1.0" encoding="utf-8"?>
<!-- Generator: Adobe Illustrator 19.1.0, SVG Export Plug-In . SVG Version: 6.00 Build 0)  -->
<svg version="1.1" id="Layer_1" xmlns="http://www.w3.org/2000/svg" xmlns:xlink="http://www.w3.org/1999/xlink" x="0px" y="0px"
	 width="181.4px" height="136.1px" viewBox="0 0 181.4 136.1" style="enable-background:new 0 0 181.4 136.1;" xml:space="preserve"
	>
<style type="text/css">
	.st0{fill:none;}
</style>
<path d="M47.2,23c0.1,0.4-0.4,1.7-1.7,3.9c-1.2,2.2-3.6,6.3-7,12.2c-3.4,5.9-5.6,9.8-6.5,11.7c-1.1-0.6-2-1.3-2.5-1.8
	s-1.1-1.4-1.2-2.4c0-0.8,0.4-1.9,1.4-4c1.1-2.1,2.2-4.1,3.3-6.2c1.1-2,1.5-3.2,1.5-3.4c0-0.5-0.5-0.8-0.8-1.1
	c-0.3-0.2-0.9-0.6-1.7-1.1c1.4-0.5,2.8-1.5,4.1-2.9c1.3-1.4,2.6-3,4-4.9c1.4-1.9,2.2-2.8,2.4-2.9c0.5-0.2,1.4,0.1,2.6,0.8
	C46.3,21.6,46.9,22.3,47.2,23"/>
<path d="M67.8,31.9c1.5-0.5,2.9-1.4,4.3-2.6c1.4-1.3,2.1-2.5,2.1-3.6c0-0.4-0.1-0.8-0.3-1.1c-0.2-0.3-0.5-0.5-0.9-0.5
	c-0.5,0-1.2,0.3-2,0.8c-0.8,0.5-1.4,1.1-2,1.8c-0.6,0.6-0.9,1.2-1.1,1.8c-0.2,0.5-0.3,1.2-0.3,1.9c0,0.2,0,0.5,0.1,0.9
	C67.7,31.5,67.8,31.8,67.8,31.9 M67.1,43.8c0.1-0.3,0.2-0.7,0.2-1.2c0-0.8-0.2-1.5-0.5-2.3c-0.4-0.8-0.8-1.5-1.3-2
	c-1.4,0.9-2.6,1.8-3.6,2.6c-1,0.9-1.5,1.7-1.5,2.5c0,0.6,0.4,1.2,1,1.6c0.7,0.4,1.5,0.6,2.4,0.6c0.7,0,1.4-0.2,2-0.5
	C66.4,44.9,66.9,44.5,67.1,43.8 M71.2,48.1c-0.7,1-1.8,1.8-3.2,2.5c-1.4,0.7-2.9,1-4.5,1c-0.7,0-1.5-0.1-2.2-0.2
	c-0.7-0.2-1.6-0.5-2.8-1.2c-1.1-0.6-2.1-1.5-3-2.8c-0.9-1.2-1.3-2.6-1.3-4c0-1.3,0.4-2.6,1.2-3.9c0.8-1.3,2.2-2.5,4-3.6
	c1.8-1.1,2.8-1.7,2.8-1.7c-0.1-0.7-0.2-1.3-0.3-1.9c-0.1-0.5-0.1-1.1-0.1-1.8c0-1.5,0.2-2.8,0.6-4.1c0.4-1.3,1.2-2.5,2.2-3.6
	c1-1.1,2.3-1.9,3.7-2.6c1.4-0.6,2.9-0.9,4.3-0.9c1.7,0,3.1,0.4,4.3,1.2c1.1,0.8,1.9,1.5,2.3,2.3c0.4,0.8,0.6,1.6,0.6,2.5
	c0,2-1,4-3,6.1c-2,2.1-4.2,3.7-6.6,4.7c0.9,1.1,1.6,2.2,2.1,3.2c0.5,1.1,0.7,2.2,0.7,3.2C73.2,44.4,72.5,46.2,71.2,48.1"/>
<path d="M112.7,39.6c-0.6,3.6-2.3,6.3-5.1,8.1s-5.8,2.7-9.3,2.7c-2.7,0-5.1-0.5-7.2-1.6c-2.1-1-3.1-2.1-3.5-3.1
	c-0.4-0.9-0.4-1.7-0.4-1.9c0.1-0.6,0.3-1.4,0.9-2.3c0.6-0.9,1-1.6,1.2-2.1c1.2,2,2.7,3.4,4.3,4.3c1.7,0.9,3.6,1.3,5.8,1.3
	c2,0,3.8-0.6,5.5-1.9c1.7-1.3,2.5-2.5,2.5-3.8c0-0.3-0.1-0.7-0.2-1c-0.2-0.3-0.4-0.6-0.9-0.8c-0.4-0.2-1-0.3-1.7-0.3
	c-0.8,0-2.2,0.2-4.2,0.6c-1.9,0.4-3.1,0.6-3.4,0.6c-0.6,0-1.1-0.2-1.6-0.6c-0.5-0.4-0.9-1-1.3-1.9c-0.4-0.8-0.6-1.7-0.6-2.5
	c0-0.4,0.6-1.7,1.8-3.8c1.2-2.1,2.4-4.1,3.7-6c1.3-1.9,1.9-2.6,2.1-2.8c0.2-0.2,0.4-0.3,0.8-0.4c0.3,0,0.6,0.1,0.9,0.5
	c0.3,0.4,0.6,0.7,0.8,0.8c0.4,0,1.4-0.2,4.2-0.5s4.6-0.6,5.6-0.6c1.1,0,1.9,0.1,2.4,0.4c0.6,0.3,1.1,0.8,1.7,1.6s1.1,1.8,1.4,3
	c-0.5-0.2-1.1-0.3-1.7-0.3c-0.6-0.1-1.2-0.1-1.9-0.1c-2.2,0-4.6,0.3-7.1,0.9c-2.5,0.6-4,1.1-4.6,1.4s-1.2,1-1.9,2
	c-0.8,1-1.3,1.9-1.8,2.9c1.5-0.4,3-0.6,4.3-0.6c2.4,0,4.4,0.5,5.9,1.6c1.5,1,2.3,2.6,2.3,4.7C112.8,38.7,112.7,39.4,112.7,39.6"/>
<path d="M153.7,25.1c-0.4-0.5-0.8-1.1-1.2-1.8c-0.3-0.7-0.6-1.3-0.8-1.7c-0.2-0.5-0.6-0.9-1-1.2c-0.4-0.4-1.1-0.6-2.1-0.6
	c-1.9,0-4.6,0.5-7.9,1.4c-3.3,0.9-5.1,1.6-5.3,2.1c-0.2,0.4-0.3,1-0.3,1.6c0,0.8,0.1,1.7,0.4,2.7c0.3,0.9,0.5,1.4,0.6,1.5
	c0.2,0.1,0.3,0.1,0.5,0.1c0.5,0,1.8-0.5,3.8-1.4c2.1-0.9,3.7-1.6,4.9-2.1c1.2-0.5,2.3-0.7,3.4-0.7c0.1,0,0.3,0,0.5,0
	c-0.7,1.3-2.7,3.4-6.2,6.4c-0.8,0.7-1.5,1.3-2.3,2c-2.4,0.1-4.6,0.3-4.6,0.3c0,0-0.3,0-0.6,0.1c-0.9,0.1-5,2.9-5.2,2.9
	c0.8,0.4,3.9,1.6,4.2,2.1c-0.5,0.5-1.1,0.9-1.6,1.4c-3.3,2.9-5.1,4.9-5.4,6.1l-0.1,0.6c0,0.7,0.3,1.4,0.8,2c0.5,0.6,1.3,1.4,2.4,2.3
	c1.9-1.9,5.2-4.9,9.7-8.8c1.6-1.4,3-2.6,4.3-3.8c1.8-0.3,3.6-0.5,5.2-0.5c0.7,0,1.3,0,1.9,0.1c0.6,0.1,1.1,0.2,1.7,0.3
	c-0.4-1.2-0.9-2.2-1.4-3c-0.6-0.8-1.1-1.3-1.7-1.6c-0.1-0.1-0.2-0.1-0.4-0.1c0.2-0.2,0.4-0.4,0.6-0.6c2.2-2.2,3.5-3.9,3.7-5.2
	c0-0.1,0.1-0.3,0.1-0.5v-0.6C154.3,26.1,154.1,25.6,153.7,25.1"/>
<path d="M0,0v64.6v6.8v64.6h181.4V71.4v-6.8V0H0z M174.6,129.2H6.9V71.5h167.7V129.2z M6.9,6.9h167.7v57.7H6.9V6.9z"/>
<g>
	<path d="M27.3,86.2V95h-1.7v-8.9h-3.4v-1.5h8.5v1.5H27.3z"/>
	<path d="M40.2,89.7c0.2,0.5,0.2,1,0.2,1.6c0,0.8-0.1,1.5-0.4,2.1c-0.3,0.6-0.7,1-1.3,1.4s-1.2,0.5-1.9,0.5c-0.8,0-1.5-0.2-2-0.5
		l-0.7,1l-0.7-0.5l0.8-1c-0.3-0.3-0.6-0.8-0.7-1.2s-0.2-1-0.2-1.6c0-0.8,0.1-1.5,0.4-2.1c0.3-0.6,0.7-1,1.3-1.4s1.2-0.5,1.9-0.5
		c0.8,0,1.5,0.2,2,0.5l0.7-1l0.7,0.5l-0.8,1C39.8,88.9,40,89.3,40.2,89.7z M35.3,89.4c-0.4,0.5-0.5,1.1-0.5,1.9
		c0,0.6,0.1,1.1,0.3,1.5l2.9-3.8c-0.3-0.3-0.7-0.4-1.2-0.4C36.2,88.7,35.7,88.9,35.3,89.4z M38.2,93.3c0.4-0.5,0.5-1.1,0.5-2
		c0-0.6-0.1-1.1-0.3-1.5l-2.9,3.8c0.3,0.3,0.7,0.4,1.2,0.4C37.4,94,37.9,93.8,38.2,93.3z"/>
	<path d="M47,96.8c-0.3,0.3-0.6,0.6-1,0.8s-0.9,0.2-1.5,0.2c-0.3,0-0.6,0-0.8-0.1v-1.4c0.2,0.1,0.5,0.1,0.7,0.1c0.4,0,0.8-0.1,1-0.3
		s0.4-0.5,0.6-1.1l-2.7-7.5h1.8l1.8,5.5h0l1.9-5.5h1.7l-2.9,7.7C47.6,96,47.3,96.5,47,96.8z"/>
	<path d="M58,93.7c0.3-0.2,0.5-0.5,0.6-0.9h1.7c-0.1,0.7-0.5,1.3-1.1,1.7c-0.6,0.5-1.4,0.7-2.3,0.7c-0.7,0-1.4-0.2-1.9-0.5
		c-0.5-0.3-1-0.8-1.2-1.4c-0.3-0.6-0.4-1.3-0.4-2.1c0-0.7,0.1-1.4,0.4-2c0.3-0.6,0.7-1,1.2-1.4c0.5-0.3,1.2-0.5,1.9-0.5
		c0.8,0,1.5,0.2,2.1,0.7c0.6,0.5,1,1.1,1.2,1.8c0.1,0.4,0.2,1,0.2,1.7h-5.4c0,0.8,0.2,1.4,0.6,1.8c0.4,0.4,0.8,0.6,1.4,0.6
		C57.3,94,57.7,93.9,58,93.7z M55.6,89.1C55.2,89.5,55,90,55,90.6h3.7c-0.1-0.6-0.3-1.1-0.6-1.4c-0.3-0.3-0.8-0.5-1.3-0.5
		S55.9,88.8,55.6,89.1z"/>
	<path d="M70.3,88.2c0.5,0.5,0.7,1.3,0.7,2.3V95h-1.7v-4.4c0-1.2-0.5-1.8-1.5-1.8c-0.5,0-0.9,0.2-1.2,0.6s-0.5,0.9-0.5,1.6V95h-1.7
		v-7.4H66v1h0c0.2-0.3,0.6-0.6,0.9-0.8c0.4-0.2,0.8-0.3,1.3-0.3C69.1,87.5,69.8,87.7,70.3,88.2z"/>
	<path d="M77.2,88.6c0.2-0.4,0.5-0.6,0.9-0.8c0.4-0.2,0.8-0.3,1.3-0.3c0.6,0,1.2,0.2,1.6,0.5s0.8,0.8,1.1,1.4c0.3,0.6,0.4,1.3,0.4,2
		s-0.1,1.5-0.4,2c-0.3,0.6-0.6,1-1.1,1.4s-1,0.5-1.6,0.5c-0.5,0-0.9-0.1-1.3-0.3c-0.4-0.2-0.7-0.5-0.9-0.9h0v1h-1.6V84.7h1.7
		L77.2,88.6L77.2,88.6z M77.6,89.4c-0.3,0.5-0.5,1.1-0.5,1.9c0,0.8,0.2,1.4,0.5,1.9s0.8,0.7,1.3,0.7c0.6,0,1-0.2,1.3-0.7
		c0.3-0.5,0.5-1.1,0.5-1.9s-0.2-1.4-0.5-1.9c-0.3-0.5-0.8-0.7-1.3-0.7C78.3,88.7,77.9,89,77.6,89.4z"/>
	<path d="M90.7,93.7c0.3-0.2,0.5-0.5,0.6-0.9H93c-0.1,0.7-0.5,1.3-1.1,1.7c-0.6,0.5-1.4,0.7-2.3,0.7c-0.7,0-1.4-0.2-1.9-0.5
		c-0.5-0.3-1-0.8-1.2-1.4C86.1,92.7,86,92,86,91.3c0-0.7,0.1-1.4,0.4-2c0.3-0.6,0.7-1,1.2-1.4c0.5-0.3,1.2-0.5,1.9-0.5
		c0.8,0,1.5,0.2,2.1,0.7c0.6,0.5,1,1.1,1.2,1.8c0.1,0.4,0.2,1,0.2,1.7h-5.4c0,0.8,0.2,1.4,0.6,1.8c0.4,0.4,0.8,0.6,1.4,0.6
		C90,94,90.4,93.9,90.7,93.7z M88.3,89.1c-0.3,0.3-0.5,0.8-0.6,1.4h3.7c-0.1-0.6-0.3-1.1-0.6-1.4c-0.3-0.3-0.8-0.5-1.3-0.5
		C89,88.6,88.6,88.8,88.3,89.1z"/>
	<path d="M101.7,95l-2.9-3.6h0V95h-1.7V84.7h1.7v6h0l2.7-3h1.9l-3.1,3.4l3.4,4H101.7z"/>
	<path d="M111.8,95l-2.9-3.6h0V95h-1.7V84.7h1.7v6h0l2.7-3h1.9l-3.1,3.4l3.4,4H111.8z"/>
	<path d="M121.2,93.7c0.3-0.2,0.5-0.5,0.6-0.9h1.7c-0.1,0.7-0.5,1.3-1.1,1.7c-0.6,0.5-1.4,0.7-2.3,0.7c-0.7,0-1.4-0.2-1.9-0.5
		s-1-0.8-1.2-1.4c-0.3-0.6-0.4-1.3-0.4-2.1c0-0.7,0.1-1.4,0.4-2c0.3-0.6,0.7-1,1.2-1.4s1.2-0.5,1.9-0.5c0.8,0,1.5,0.2,2.1,0.7
		c0.6,0.5,1,1.1,1.2,1.8c0.1,0.4,0.2,1,0.2,1.7h-5.4c0,0.8,0.2,1.4,0.6,1.8c0.4,0.4,0.8,0.6,1.4,0.6C120.5,94,120.9,93.9,121.2,93.7
		z M118.7,89.1c-0.3,0.3-0.5,0.8-0.6,1.4h3.7c-0.1-0.6-0.3-1.1-0.6-1.4c-0.3-0.3-0.8-0.5-1.3-0.5S119.1,88.8,118.7,89.1z"/>
	<path d="M133.4,88.2c0.5,0.5,0.7,1.3,0.7,2.3V95h-1.7v-4.4c0-1.2-0.5-1.8-1.5-1.8c-0.5,0-0.9,0.2-1.2,0.6s-0.5,0.9-0.5,1.6V95h-1.7
		v-7.4h1.6v1h0c0.2-0.3,0.6-0.6,0.9-0.8s0.8-0.3,1.3-0.3C132.3,87.5,133,87.7,133.4,88.2z"/>
	<path d="M143.6,95v-6.9h-2.3v-1.3c0.8,0,1.4-0.1,1.8-0.4c0.4-0.3,0.6-0.7,0.7-1.3h1.5V95H143.6z"/>
	<path d="M153.6,85.3c0.5,0.2,0.9,0.6,1.2,1s0.4,0.9,0.4,1.5s-0.1,1-0.3,1.4c-0.2,0.4-0.5,0.7-0.9,1c-0.4,0.3-0.8,0.6-1.4,0.9
		c-0.6,0.4-1.1,0.7-1.4,0.9c-0.3,0.3-0.5,0.5-0.7,0.7c-0.1,0.2-0.2,0.5-0.2,0.8h5.1V95h-7.1c0-0.1,0-0.2,0-0.3
		c0-0.7,0.1-1.2,0.2-1.7s0.4-0.9,0.8-1.4c0.4-0.4,1-0.9,1.8-1.3c0.6-0.3,1-0.6,1.3-0.8c0.3-0.2,0.5-0.5,0.7-0.7
		c0.2-0.3,0.2-0.6,0.2-0.9c0-0.4-0.1-0.8-0.4-1c-0.3-0.3-0.6-0.4-1.1-0.4c-1.1,0-1.7,0.6-1.7,1.7h-1.7c0-1,0.3-1.8,1-2.4
		c0.6-0.6,1.4-0.8,2.5-0.8C152.5,85,153.1,85.1,153.6,85.3z"/>
</g>
<g>
	<path d="M79.9,103.6c0.7,0.4,1.3,1.1,1.7,1.9c0.4,0.8,0.6,1.8,0.6,2.9s-0.2,2.1-0.6,2.9s-0.9,1.4-1.7,1.9c-0.7,0.4-1.6,0.7-2.6,0.7
		s-1.8-0.2-2.6-0.7c-0.7-0.4-1.3-1.1-1.7-1.9c-0.4-0.8-0.6-1.8-0.6-2.9s0.2-2.1,0.6-2.9c0.4-0.8,0.9-1.4,1.7-1.9
		c0.7-0.4,1.6-0.7,2.6-0.7S79.2,103.2,79.9,103.6z M75.2,105.6c-0.5,0.7-0.8,1.6-0.8,2.8s0.3,2.1,0.8,2.8c0.5,0.7,1.3,1,2.2,1
		s1.7-0.3,2.2-1c0.5-0.7,0.8-1.6,0.8-2.8s-0.3-2.1-0.8-2.8c-0.5-0.7-1.3-1-2.2-1S75.7,104.9,75.2,105.6z"/>
	<path d="M90.7,106.6c0.5,0.4,0.8,1.1,0.8,1.9h-1.6c0-0.4-0.1-0.8-0.4-1c-0.2-0.2-0.6-0.3-1-0.3c-0.4,0-0.7,0.1-0.9,0.2
		c-0.2,0.2-0.3,0.4-0.3,0.6c0,0.2,0.1,0.4,0.2,0.5c0.1,0.1,0.3,0.2,0.5,0.3c0.2,0.1,0.6,0.2,1,0.3c0.6,0.2,1.1,0.3,1.5,0.5
		c0.4,0.1,0.7,0.4,0.9,0.7c0.3,0.3,0.4,0.7,0.4,1.3c0,0.7-0.3,1.2-0.8,1.6c-0.6,0.4-1.3,0.6-2.3,0.6c-1,0-1.8-0.2-2.4-0.7
		c-0.6-0.5-0.8-1.1-0.9-2h1.7c0,0.5,0.1,0.8,0.4,1c0.3,0.2,0.6,0.4,1.1,0.4c0.4,0,0.7-0.1,1-0.2s0.4-0.4,0.4-0.7
		c0-0.2-0.1-0.4-0.2-0.6s-0.3-0.3-0.5-0.3c-0.2-0.1-0.6-0.2-1.1-0.3c-0.6-0.1-1-0.3-1.3-0.4s-0.6-0.3-0.8-0.6s-0.3-0.7-0.3-1.2
		c0-0.4,0.1-0.8,0.4-1.2c0.2-0.3,0.6-0.6,1-0.8c0.4-0.2,0.9-0.3,1.5-0.3C89.4,106,90.2,106.2,90.7,106.6z"/>
	<path d="M95.8,113.6v-10.4h1.7v10.4H95.8z"/>
	<path d="M107.2,106.4c0.5,0.3,1,0.8,1.3,1.4c0.3,0.6,0.4,1.3,0.4,2.1s-0.1,1.5-0.4,2.1c-0.3,0.6-0.7,1-1.3,1.4
		c-0.5,0.3-1.2,0.5-1.9,0.5c-0.7,0-1.4-0.2-1.9-0.5c-0.6-0.3-1-0.8-1.3-1.4c-0.3-0.6-0.4-1.3-0.4-2.1s0.1-1.5,0.4-2.1
		c0.3-0.6,0.7-1,1.3-1.4c0.6-0.3,1.2-0.5,1.9-0.5C106,106,106.6,106.1,107.2,106.4z M103.8,108c-0.3,0.5-0.5,1.1-0.5,1.9
		s0.2,1.4,0.5,1.9s0.8,0.7,1.4,0.7s1.1-0.2,1.4-0.7c0.3-0.5,0.5-1.1,0.5-1.9s-0.2-1.4-0.5-1.9c-0.3-0.5-0.8-0.7-1.4-0.7
		S104.2,107.5,103.8,108z"/>
</g>
<rect class="st0" width="181.4" height="136.1"/>
<rect class="st0" width="181.4" height="136.1"/>
</svg>
