<?xml version="1.0" encoding="utf-8"?>
<!-- Generator: Adobe Illustrator 19.1.0, SVG Export Plug-In . SVG Version: 6.00 Build 0)  -->
<svg version="1.1" id="Layer_1" xmlns="http://www.w3.org/2000/svg" xmlns:xlink="http://www.w3.org/1999/xlink" x="0px" y="0px"
	 width="107px" height="30.8px" viewBox="0 0 107 30.8" style="enable-background:new 0 0 107 30.8;" xml:space="preserve">
<path d="M45.5,23.3c0,0-0.3-3-0.7-6.3c-0.3-3.2-0.8-6.4-0.8-6.4c-1.1,2.5-1.6,3.3-3,6.3c-1.4,3.1-1.8,3.9-3,6.4c-0.2,0-0.7,0-1,0
	c-1.1-2.3-1.2-2.5-2.9-6c-1.3-2.6-2-4.1-3.3-6.7c-0.2,2.6-0.3,3.6-0.6,6.7c-0.2,2.4-0.2,3.7-0.4,6.1c-0.3,0-0.8,0-1.3,0
	c0.3-2.5,0.4-4.1,0.7-7.9c0.3-3.8,0.5-5.5,0.7-7.9c0.5,0,1.3,0,1.8,0c0,0,1.1,2.3,2.7,5.6c1.8,3.6,2.2,4.4,3.6,7.2
	c1.2-2.6,1.9-4,3.1-6.6c1.3-2.8,2.6-5.6,2.8-6.2c0.4,0,1.3,0,1.7,0c0,0,0.3,3.4,0.9,7.5c0.6,4.6,0.8,6.3,1.1,8.3
	C47.3,23.3,46.4,23.3,45.5,23.3"/>
<path d="M57.3,23.3c0-0.4,0-1,0-1.6c-0.8,1-1.9,1.8-3.6,1.8c-1.4,0-2.5-0.8-3-1.8c-0.3-0.6-0.4-1.5-0.3-2.4c0-0.6,0-1.2,0-2.2
	c0-1.2,0-2.5,0-3.9c0.8,0,1.6,0,2.2,0c0,1.4-0.1,2.3,0,3.6v2.9c0,1.2,0.7,2.4,2.1,2.4c1.3,0,2.4-1.2,2.6-1.6c0-0.8,0-2,0-2.9
	c0-1.6,0-3.2,0-4.5c0.8,0.1,1.5,0,2.2,0c0,0-0.1,2.2-0.1,4.6c0,2,0,4.2,0.1,5.4C58.8,23.3,58.2,23.3,57.3,23.3"/>
<path d="M69.7,23.3c0-1.4,0-2.3,0-3.6v-3c0-0.9-0.5-2.4-1.9-2.4c-1.3,0-2.6,1.3-2.8,1.7c0,0.8,0,1.9,0,2.8c0,1.6,0,3.3,0.1,4.6
	c-0.8-0.1-1.5,0-2.2,0c0,0,0.1-2.3,0.1-4.8c0-2,0-4.1-0.1-5.3c0.8,0,1.3,0,2.2,0c0,0.6,0,1.2-0.1,1.7c1-1,2.2-2,3.8-2
	c1.4,0,2.4,0.8,2.8,1.8c0.3,0.6,0.3,1.4,0.3,2.2c0,0.6,0,1.5,0,2.5c0,1.2,0,2.5,0.1,3.9C71.1,23.3,70.3,23.3,69.7,23.3"/>
<path d="M81.9,23.3c-1.3-1.6-4.1-4.8-4.1-4.8L77.2,19c0,2.2,0,4.3,0,4.3c-0.8,0-1.5,0-2.2,0c0,0,0.1-6.6,0.1-8.5c0-1.9-0.1-8-0.1-8
	c0.8,0,1.5,0,2.2,0c0,0-0.1,6.1-0.1,8c0,0.7,0,2,0,3.3c0.5-0.4,2-1.7,2.7-2.3c1.4-1.2,2.9-2.5,2.9-2.5c0.3,0,0.8,0,1.2,0l-4.8,4
	c0.8,0.9,4.5,5.1,4.5,5.1l0.9,1C83.8,23.2,82.7,23.3,81.9,23.3"/>
<path d="M90.3,13.4c-1.3,0-2.7,1.2-2.7,3.9H93C93,14.8,91.9,13.4,90.3,13.4 M87.6,18c0,1.5,0.8,4.5,3.9,4.5c1.1,0,2.2-0.4,3.2-1.4
	l0.3,0.4c-0.5,0.5-1.8,2.1-4.6,2.1c-2.7,0-5.1-2-5.1-5.5c0-3.4,2.8-5.3,5.1-5.3c2.5,0,5.2,1.7,5,5.1H87.6z"/>
<path d="M104.8,23.3c0-1.4,0-2.3,0-3.6v-3c0-0.9-0.5-2.4-1.9-2.4c-1.3,0-2.6,1.3-2.8,1.7c0,0.8,0,1.9,0,2.8c0,1.6,0,3.3,0.1,4.6
	c-0.8-0.1-1.5,0-2.2,0c0,0,0.1-2.3,0.1-4.8c0-2,0-4.1-0.1-5.3c0.8,0,1.3,0,2.2,0c0,0.6,0,1.2-0.1,1.7c1-1,2.2-2,3.8-2
	c1.4,0,2.4,0.8,2.8,1.8c0.3,0.6,0.3,1.4,0.3,2.2c0,0.6,0,1.5,0,2.5c0,1.2,0,2.5,0.1,3.9C106.2,23.3,105.4,23.3,104.8,23.3"/>
<path d="M14.9,16.8l-3.8,2.9l-0.2-0.4c0-0.1-1.1-2.2-1.5-3.2c-0.3-0.8-0.6-0.9-1.1-0.9H5.1c0.1,0.8,0.3,4.2,1.6,6.2
	c1.4,2.2,3.3,3.2,4,3.5c0.3-0.4,4.9-5.6,5.1-5.9c-0.1-0.3-0.6-1.5-0.9-2.1L14.9,16.8z"/>
<path d="M10.1,15.8c0.3,0.7,0.9,2,1.3,2.7c0.5-0.4,2-1.5,2.5-1.9c-1.3-1.2-6.1-5.6-7.5-7.4l0,0c0,0-0.1-0.1-0.1-0.1
	c-0.6,1.2-2.2,4.6-2.5,5.3h4.6C9.2,14.4,9.7,14.8,10.1,15.8"/>
<path d="M6.9,8.8C7,8.9,7.1,9,7.2,9.1c0.2-0.4,0.4-0.9,0.6-1.4c-0.1,0-0.1,0-0.2,0C7.2,7.7,6.9,7.8,6.8,8C6.7,8,6.6,8.2,6.6,8.3
	C6.6,8.4,6.7,8.5,6.9,8.8L6.9,8.8z"/>
<path d="M16.2,18.1c1.6-0.7,2.3-2,2.4-3.1c-1.2,0-2.4,0.8-3.1,1.4L16.2,18.1z"/>
<path d="M12.6,8.4c0.3,0,0.5,0.2,0.5,0.5c0,0.3-0.2,0.5-0.5,0.5c-0.3,0-0.5-0.2-0.5-0.5C12.2,8.6,12.4,8.4,12.6,8.4 M11.5,13.4
	c0.3-0.2,1-0.7,1.5-1.2l0,0c0.1-0.1,0.3-0.3,0.3-0.8c0-0.1,0-0.3-0.1-0.5l-0.1-0.4c0,0,0.8-0.2,1.1-0.2c0-0.7-0.2-2.2-0.6-3.3
	c-0.4,0.2-1.3,0.4-2.4,0.3c-1.1-0.1-2-0.4-2.3-0.6c-0.2,0.5-0.9,2-1.3,2.9C8.7,10.8,10.2,12.2,11.5,13.4"/>
<path d="M13.3,6.4c-0.4-0.6-1-1.1-1.8-1.1c-0.7,0-1.5,0.4-2,0.9c0.3,0.1,1,0.4,1.9,0.5C12.2,6.7,12.9,6.5,13.3,6.4"/>
<path d="M19.6,27.1c-2.4,2.4-5.4,3-7.5,3c-1.7,0-5-0.4-7.6-3C2,24.5,0.7,20.6,0.7,15.4c0-5.2,1.3-9.1,3.9-11.7
	c2.7-2.7,5.9-3.1,7.6-3.1c2.1,0,5.1,0.5,7.5,3c2.5,2.5,3.7,6.5,3.7,11.7C23.3,20.7,22.1,24.6,19.6,27.1 M20.1,3.2
	c-2.6-2.7-5.8-3.2-8-3.2c-1.8,0-5.2,0.4-8.1,3.3C1.4,6,0,10.1,0,15.4c0,5.4,1.4,9.4,4,12.1c2.1,2.1,5,3.2,8.1,3.2
	c2.2,0,5.4-0.5,8-3.2C22.7,25,24,20.9,24,15.4C24,10,22.7,5.9,20.1,3.2"/>
<path d="M15.8,24.3l-0.1,0.2l-1-3.1l-3.8,4.3l-0.2-0.1c-0.1,0-2.8-1-4.6-3.9c-1.4-2.3-1.7-5.9-1.7-6.6H2.5l3.4-7.3l0,0
	C6,7.7,6.1,7.5,6.3,7.4c0.3-0.3,0.8-0.4,1.3-0.4c0.2,0,0.4,0,0.5,0c0.1-0.3,0.2-0.5,0.3-0.6c0.5-1,1.9-1.8,3-1.8
	c1,0,1.9,0.6,2.6,1.7c0.9,1.4,1,4.3,1,4.5l0,0.3c0,0-0.6,0.1-0.9,0.2c0,0.1,0,0.2,0,0.3c0,0.8-0.4,1.1-0.5,1.3l0,0
	c-0.5,0.5-1.1,1-1.5,1.2c1.2,1.1,2.1,2,2.5,2.3l0.1,0c0.6-0.6,1.9-1.8,3.5-2c-1.1-0.9-2-0.9-2-0.9l0-1.5c1.5,0.6,2.3,1.5,3.1,2.4
	l0,0l0.1,0l1.4-1.3l0.2-0.2l0.6,3.7l0,0C21.3,16.6,17.5,21,15.8,24.3 M19.2,4.1c-2.3-2.3-5.1-2.8-7.1-2.8c-1.6,0-4.7,0.4-7.2,2.9
	c-2.5,2.5-3.7,6.3-3.7,11.3c0,5,1.2,8.8,3.6,11.2c2.5,2.5,5.6,2.9,7.2,2.9c2,0,4.8-0.5,7.1-2.8c2.3-2.4,3.5-6.2,3.5-11.3
	C22.8,10.3,21.6,6.5,19.2,4.1"/>
<path d="M29.7,29.2h0.6c0.2,0,0.6-0.1,0.6-0.5c0-0.3-0.2-0.5-0.6-0.5h-0.6V29.2z M29.7,27.8h0.5c0.3,0,0.5-0.1,0.5-0.4
	c0-0.2-0.1-0.4-0.5-0.4h-0.6V27.8z M29.3,26.6h1c0.5,0,0.9,0.2,0.9,0.7c0,0.3-0.2,0.5-0.5,0.6v0c0.3,0,0.6,0.3,0.6,0.7
	c0,0.5-0.5,0.8-1,0.8h-1V26.6z"/>
<polygon points="33.2,28.3 32.1,26.6 32.6,26.6 33.4,27.9 34.2,26.6 34.6,26.6 33.5,28.3 33.5,29.5 33.2,29.5 "/>
<path d="M38.8,28.5l-0.5-1.3h0l-0.5,1.3H38.8z M38.1,26.6h0.4l1.2,2.9h-0.5l-0.3-0.7h-1.4l-0.3,0.7h-0.5L38.1,26.6z"/>
<path d="M41.2,27.9h0.5c0.3,0,0.6-0.1,0.6-0.5c0-0.4-0.3-0.5-0.6-0.5h-0.5V27.9z M40.8,26.6h1c0.7,0,0.9,0.4,0.9,0.8
	c0,0.4-0.3,0.7-0.7,0.8l0.8,1.3h-0.5l-0.7-1.3h-0.4v1.3h-0.4V26.6z"/>
<path d="M46.2,27.3c-0.2-0.2-0.4-0.3-0.7-0.3c-0.6,0-1.1,0.5-1.1,1.2c0,0.6,0.4,1.1,1.1,1.1c0.3,0,0.6-0.1,0.8-0.4l0.3,0.2
	c-0.1,0.1-0.4,0.5-1.1,0.5c-0.9,0-1.5-0.8-1.5-1.5c0-0.9,0.6-1.5,1.5-1.5c0.4,0,0.8,0.1,1,0.4L46.2,27.3z"/>
<polygon points="48.4,27 47.5,27 47.5,26.6 49.7,26.6 49.7,27 48.8,27 48.8,29.5 48.4,29.5 "/>
<rect x="51" y="26.6" width="0.4" height="2.9"/>
<path d="M54.9,27.3c-0.2-0.2-0.4-0.3-0.7-0.3c-0.6,0-1.1,0.5-1.1,1.2c0,0.6,0.4,1.1,1.1,1.1c0.3,0,0.6-0.1,0.8-0.4l0.3,0.2
	c-0.1,0.1-0.4,0.5-1.1,0.5c-0.9,0-1.5-0.8-1.5-1.5c0-0.9,0.6-1.5,1.5-1.5c0.4,0,0.8,0.1,1,0.4L54.9,27.3z"/>
<path d="M58.4,27.9h0.5c0.3,0,0.6-0.1,0.6-0.5c0-0.4-0.3-0.5-0.6-0.5h-0.5V27.9z M58,26.6h1c0.7,0,0.9,0.4,0.9,0.8
	c0,0.4-0.2,0.8-0.9,0.8h-0.6v1.3H58V26.6z"/>
<path d="M62.5,28.5L62,27.1h0l-0.5,1.3H62.5z M61.8,26.6h0.4l1.2,2.9h-0.5l-0.3-0.7h-1.4L61,29.5h-0.5L61.8,26.6z"/>
<path d="M64.9,27.9h0.5c0.3,0,0.6-0.1,0.6-0.5c0-0.4-0.3-0.5-0.6-0.5h-0.5V27.9z M64.5,26.6h1c0.7,0,0.9,0.4,0.9,0.8
	c0,0.4-0.2,0.8-0.9,0.8h-0.6v1.3h-0.4V26.6z"/>
<polygon points="67.7,26.6 69.6,26.6 69.6,27 68.1,27 68.1,27.9 69.5,27.9 69.5,28.2 68.1,28.2 68.1,29.2 69.7,29.2 69.7,29.5 
	67.7,29.5 "/>
<path d="M71.4,27.9h0.5c0.3,0,0.6-0.1,0.6-0.5c0-0.4-0.3-0.5-0.6-0.5h-0.5V27.9z M71,26.6h1c0.7,0,0.9,0.4,0.9,0.8
	c0,0.4-0.3,0.7-0.7,0.8l0.8,1.3h-0.5l-0.7-1.3h-0.4v1.3H71V26.6z"/>
</svg>
